<svg width="352" height="155" viewBox="0 0 352 155" fill="none" xmlns="http://www.w3.org/2000/svg">
<circle cx="176" cy="52.5" r="52" fill="#C8E6C9"/>
<g filter="url(#filter0_dd_65_1764)">
<path d="M177.6 16.5C190.779 16.5 202.096 24.4689 207 35.8506C207.853 35.752 208.72 35.7002 209.6 35.7002C221.971 35.7002 232 45.7286 232 58.0996C232 70.2776 222.282 80.1857 210.178 80.4922L209.6 80.5H145.6C131.461 80.4998 120 69.0386 120 54.9004C120 40.762 131.461 29.3 145.6 29.2998C147.63 29.2998 149.604 29.5369 151.498 29.9834C157.297 21.8235 166.827 16.5001 177.6 16.5Z" fill="#E8F5E9"/>
<ellipse cx="145.6" cy="54.9" rx="25.6" ry="25.6" fill="url(#paint0_linear_65_1764)"/>
<circle cx="177.6" cy="48.5" r="32" fill="url(#paint1_linear_65_1764)"/>
<ellipse cx="209.6" cy="58.1" rx="22.4" ry="22.4" fill="url(#paint2_linear_65_1764)"/>
</g>
<circle cx="121" cy="19.5" r="5" fill="#E8F5E9"/>
<circle cx="118" cy="109.5" r="7" fill="#E8F5E9"/>
<circle cx="245" cy="35.5" r="7" fill="#E8F5E9"/>
<circle cx="234" cy="8.5" r="4" fill="#E8F5E9"/>
<rect x="152" y="62.5" width="48" height="48" rx="24" fill="#6CBE8C"/>
<path d="M185 95.5L181.5 92M184 86C184 90.6944 180.194 94.5 175.5 94.5C170.806 94.5 167 90.6944 167 86C167 81.3056 170.806 77.5 175.5 77.5C180.194 77.5 184 81.3056 184 86Z" stroke="white" stroke-width="2" stroke-linecap="round" stroke-linejoin="round"/>
<path d="M158.122 148.5H155.434L151.08 140.94H151.024C151.043 141.257 151.057 141.575 151.066 141.892C151.085 142.209 151.099 142.527 151.108 142.844C151.127 143.161 151.141 143.479 151.15 143.796V148.5H149.26V138.504H151.934L156.274 145.994H156.316C156.307 145.686 156.297 145.378 156.288 145.07C156.279 144.762 156.265 144.459 156.246 144.16C156.237 143.852 156.227 143.544 156.218 143.236V138.504H158.122V148.5ZM167.525 144.664C167.525 145.299 167.436 145.863 167.259 146.358C167.091 146.853 166.843 147.273 166.517 147.618C166.199 147.954 165.812 148.211 165.355 148.388C164.897 148.556 164.379 148.64 163.801 148.64C163.269 148.64 162.774 148.556 162.317 148.388C161.869 148.211 161.481 147.954 161.155 147.618C160.828 147.273 160.571 146.853 160.385 146.358C160.207 145.863 160.119 145.299 160.119 144.664C160.119 143.815 160.268 143.101 160.567 142.522C160.865 141.934 161.295 141.486 161.855 141.178C162.415 140.87 163.077 140.716 163.843 140.716C164.561 140.716 165.196 140.87 165.747 141.178C166.297 141.486 166.731 141.934 167.049 142.522C167.366 143.101 167.525 143.815 167.525 144.664ZM162.247 144.664C162.247 145.168 162.298 145.593 162.401 145.938C162.513 146.274 162.685 146.531 162.919 146.708C163.152 146.876 163.455 146.96 163.829 146.96C164.202 146.96 164.501 146.876 164.725 146.708C164.958 146.531 165.126 146.274 165.229 145.938C165.341 145.593 165.397 145.168 165.397 144.664C165.397 144.16 165.341 143.74 165.229 143.404C165.126 143.068 164.958 142.816 164.725 142.648C164.491 142.48 164.188 142.396 163.815 142.396C163.264 142.396 162.863 142.587 162.611 142.97C162.368 143.343 162.247 143.908 162.247 144.664ZM177.103 148.5H174.989V140.268H172.273V138.504H179.819V140.268H177.103V148.5ZM183.308 140.702C184.334 140.702 185.118 140.926 185.66 141.374C186.21 141.813 186.486 142.489 186.486 143.404V148.5H185.03L184.624 147.464H184.568C184.353 147.735 184.129 147.959 183.896 148.136C183.672 148.313 183.41 148.439 183.112 148.514C182.822 148.598 182.463 148.64 182.034 148.64C181.586 148.64 181.18 148.556 180.816 148.388C180.461 148.211 180.181 147.945 179.976 147.59C179.77 147.226 179.668 146.769 179.668 146.218C179.668 145.406 179.952 144.809 180.522 144.426C181.091 144.034 181.945 143.819 183.084 143.782L184.414 143.74V143.404C184.414 143.003 184.306 142.709 184.092 142.522C183.886 142.335 183.597 142.242 183.224 142.242C182.85 142.242 182.486 142.298 182.132 142.41C181.777 142.513 181.422 142.643 181.068 142.802L180.382 141.388C180.792 141.173 181.245 141.005 181.74 140.884C182.244 140.763 182.766 140.702 183.308 140.702ZM183.602 144.986C182.93 145.005 182.463 145.126 182.202 145.35C181.94 145.574 181.81 145.868 181.81 146.232C181.81 146.549 181.903 146.778 182.09 146.918C182.276 147.049 182.519 147.114 182.818 147.114C183.266 147.114 183.644 146.983 183.952 146.722C184.26 146.451 184.414 146.073 184.414 145.588V144.958L183.602 144.986ZM194.055 146.232C194.055 146.745 193.934 147.184 193.691 147.548C193.448 147.903 193.084 148.173 192.599 148.36C192.114 148.547 191.512 148.64 190.793 148.64C190.261 148.64 189.804 148.603 189.421 148.528C189.038 148.463 188.656 148.351 188.273 148.192V146.47C188.684 146.657 189.127 146.811 189.603 146.932C190.079 147.053 190.499 147.114 190.863 147.114C191.274 147.114 191.563 147.053 191.731 146.932C191.908 146.811 191.997 146.652 191.997 146.456C191.997 146.325 191.96 146.209 191.885 146.106C191.82 146.003 191.67 145.887 191.437 145.756C191.204 145.625 190.84 145.457 190.345 145.252C189.869 145.047 189.477 144.846 189.169 144.65C188.861 144.445 188.632 144.202 188.483 143.922C188.334 143.633 188.259 143.273 188.259 142.844C188.259 142.135 188.534 141.603 189.085 141.248C189.636 140.893 190.368 140.716 191.283 140.716C191.759 140.716 192.212 140.763 192.641 140.856C193.07 140.949 193.514 141.103 193.971 141.318L193.341 142.816C192.968 142.657 192.613 142.527 192.277 142.424C191.941 142.312 191.6 142.256 191.255 142.256C190.947 142.256 190.714 142.298 190.555 142.382C190.406 142.466 190.331 142.592 190.331 142.76C190.331 142.881 190.368 142.993 190.443 143.096C190.527 143.189 190.681 143.292 190.905 143.404C191.138 143.516 191.479 143.665 191.927 143.852C192.366 144.029 192.744 144.216 193.061 144.412C193.378 144.599 193.621 144.837 193.789 145.126C193.966 145.406 194.055 145.775 194.055 146.232ZM197.866 142.62C197.866 142.909 197.852 143.199 197.824 143.488C197.805 143.768 197.782 144.053 197.754 144.342H197.782C197.875 144.211 197.969 144.081 198.062 143.95C198.165 143.819 198.267 143.689 198.37 143.558C198.473 143.427 198.58 143.301 198.692 143.18L200.834 140.856H203.186L200.148 144.174L203.368 148.5H200.96L198.762 145.406L197.866 146.12V148.5H195.78V137.86H197.866V142.62Z" fill="#212121" fill-opacity="0.87"/>
<defs>
<filter id="filter0_dd_65_1764" x="96" y="12.5" width="160" height="112" filterUnits="userSpaceOnUse" color-interpolation-filters="sRGB">
<feFlood flood-opacity="0" result="BackgroundImageFix"/>
<feColorMatrix in="SourceAlpha" type="matrix" values="0 0 0 0 0 0 0 0 0 0 0 0 0 0 0 0 0 0 127 0" result="hardAlpha"/>
<feMorphology radius="4" operator="erode" in="SourceAlpha" result="effect1_dropShadow_65_1764"/>
<feOffset dy="8"/>
<feGaussianBlur stdDeviation="4"/>
<feColorMatrix type="matrix" values="0 0 0 0 0.0627451 0 0 0 0 0.0941176 0 0 0 0 0.156863 0 0 0 0.03 0"/>
<feBlend mode="normal" in2="BackgroundImageFix" result="effect1_dropShadow_65_1764"/>
<feColorMatrix in="SourceAlpha" type="matrix" values="0 0 0 0 0 0 0 0 0 0 0 0 0 0 0 0 0 0 127 0" result="hardAlpha"/>
<feOffset dy="20"/>
<feGaussianBlur stdDeviation="12"/>
<feColorMatrix type="matrix" values="0 0 0 0 0.0627451 0 0 0 0 0.0941176 0 0 0 0 0.156863 0 0 0 0.08 0"/>
<feBlend mode="normal" in2="effect1_dropShadow_65_1764" result="effect2_dropShadow_65_1764"/>
<feBlend mode="normal" in="SourceGraphic" in2="effect2_dropShadow_65_1764" result="shape"/>
</filter>
<linearGradient id="paint0_linear_65_1764" x1="125.943" y1="37.9857" x2="171.2" y2="80.4999" gradientUnits="userSpaceOnUse">
<stop stop-color="#6CBE8C"/>
<stop offset="0.350715" stop-color="white" stop-opacity="0"/>
</linearGradient>
<linearGradient id="paint1_linear_65_1764" x1="153.029" y1="27.3571" x2="209.6" y2="80.5" gradientUnits="userSpaceOnUse">
<stop stop-color="#6CBE8C"/>
<stop offset="0.350715" stop-color="white" stop-opacity="0"/>
</linearGradient>
<linearGradient id="paint2_linear_65_1764" x1="192.4" y1="43.3" x2="232" y2="80.5" gradientUnits="userSpaceOnUse">
<stop stop-color="#6CBE8C"/>
<stop offset="0.350715" stop-color="white" stop-opacity="0"/>
</linearGradient>
</defs>
</svg>
